<mxfile host="app.diagrams.net" modified="2023-03-08T19:43:24.246Z" agent="5.0 (Windows NT 10.0; Win64; x64) AppleWebKit/537.36 (KHTML, like Gecko) Chrome/110.0.0.0 Safari/537.36" etag="CHBoiG6I3CLawZ1q4qwh" version="21.0.2" type="github" pages="2">
  <diagram id="woTTp9zBkGC35WGhT842" name="Página-1">
    <mxGraphModel dx="1050" dy="581" grid="1" gridSize="10" guides="1" tooltips="1" connect="1" arrows="1" fold="1" page="1" pageScale="1" pageWidth="827" pageHeight="1169" math="0" shadow="0">
      <root>
        <mxCell id="0" />
        <mxCell id="1" parent="0" />
        <mxCell id="JMANzGFl1SLDtd_uZZzs-1" value="Empresa de Música" style="text;strokeColor=none;fillColor=none;spacingLeft=4;spacingRight=4;overflow=hidden;rotatable=0;points=[[0,0.5],[1,0.5]];portConstraint=eastwest;fontSize=17;" parent="1" vertex="1">
          <mxGeometry x="463" y="10" width="180" height="60" as="geometry" />
        </mxCell>
        <mxCell id="JMANzGFl1SLDtd_uZZzs-2" value="Músico" style="whiteSpace=wrap;html=1;align=center;fontSize=17;" parent="1" vertex="1">
          <mxGeometry x="151" y="240" width="100" height="40" as="geometry" />
        </mxCell>
        <mxCell id="JMANzGFl1SLDtd_uZZzs-3" value="Album" style="whiteSpace=wrap;html=1;align=center;fontSize=17;" parent="1" vertex="1">
          <mxGeometry x="578" y="240" width="100" height="40" as="geometry" />
        </mxCell>
        <mxCell id="JMANzGFl1SLDtd_uZZzs-4" value="Possui" style="shape=rhombus;perimeter=rhombusPerimeter;whiteSpace=wrap;html=1;align=center;fontSize=17;" parent="1" vertex="1">
          <mxGeometry x="383.5" y="230" width="61" height="60" as="geometry" />
        </mxCell>
        <mxCell id="JMANzGFl1SLDtd_uZZzs-5" value="" style="endArrow=none;html=1;rounded=0;fontSize=17;" parent="1" edge="1">
          <mxGeometry relative="1" as="geometry">
            <mxPoint x="251" y="260" as="sourcePoint" />
            <mxPoint x="383" y="260" as="targetPoint" />
          </mxGeometry>
        </mxCell>
        <mxCell id="JMANzGFl1SLDtd_uZZzs-6" value="" style="endArrow=none;html=1;rounded=0;fontSize=17;" parent="1" edge="1">
          <mxGeometry relative="1" as="geometry">
            <mxPoint x="445" y="260.5" as="sourcePoint" />
            <mxPoint x="577" y="260.5" as="targetPoint" />
          </mxGeometry>
        </mxCell>
        <mxCell id="JMANzGFl1SLDtd_uZZzs-7" value="" style="ellipse;whiteSpace=wrap;html=1;fontSize=17;" parent="1" vertex="1">
          <mxGeometry x="592" y="173" width="12" height="10" as="geometry" />
        </mxCell>
        <mxCell id="JMANzGFl1SLDtd_uZZzs-11" value="" style="ellipse;whiteSpace=wrap;html=1;fontSize=17;" parent="1" vertex="1">
          <mxGeometry x="610" y="190" width="12" height="10" as="geometry" />
        </mxCell>
        <mxCell id="JMANzGFl1SLDtd_uZZzs-12" value="" style="ellipse;whiteSpace=wrap;html=1;fontSize=17;" parent="1" vertex="1">
          <mxGeometry x="626" y="205" width="12" height="10" as="geometry" />
        </mxCell>
        <mxCell id="JMANzGFl1SLDtd_uZZzs-18" value="Título" style="text;strokeColor=none;fillColor=none;spacingLeft=4;spacingRight=4;overflow=hidden;rotatable=0;points=[[0,0.5],[1,0.5]];portConstraint=eastwest;fontSize=12;" parent="1" vertex="1">
          <mxGeometry x="580" y="152" width="40" height="30" as="geometry" />
        </mxCell>
        <mxCell id="JMANzGFl1SLDtd_uZZzs-19" value="Data" style="text;strokeColor=none;fillColor=none;spacingLeft=4;spacingRight=4;overflow=hidden;rotatable=0;points=[[0,0.5],[1,0.5]];portConstraint=eastwest;fontSize=12;" parent="1" vertex="1">
          <mxGeometry x="613" y="171" width="40" height="30" as="geometry" />
        </mxCell>
        <mxCell id="JMANzGFl1SLDtd_uZZzs-20" value="Formato" style="text;strokeColor=none;fillColor=none;spacingLeft=4;spacingRight=4;overflow=hidden;rotatable=0;points=[[0,0.5],[1,0.5]];portConstraint=eastwest;fontSize=12;" parent="1" vertex="1">
          <mxGeometry x="635" y="191" width="57" height="30" as="geometry" />
        </mxCell>
        <mxCell id="JMANzGFl1SLDtd_uZZzs-21" value="Código" style="text;strokeColor=none;fillColor=none;spacingLeft=4;spacingRight=4;overflow=hidden;rotatable=0;points=[[0,0.5],[1,0.5]];portConstraint=eastwest;fontSize=12;" parent="1" vertex="1">
          <mxGeometry x="652" y="211" width="57" height="30" as="geometry" />
        </mxCell>
        <mxCell id="JMANzGFl1SLDtd_uZZzs-24" value="" style="endArrow=none;html=1;rounded=0;fontSize=17;exitX=0.491;exitY=-0.026;exitDx=0;exitDy=0;exitPerimeter=0;entryX=0.209;entryY=0.003;entryDx=0;entryDy=0;entryPerimeter=0;" parent="1" edge="1">
          <mxGeometry relative="1" as="geometry">
            <mxPoint x="598.657" y="183.22000000000003" as="sourcePoint" />
            <mxPoint x="599.9000000000001" y="240.12" as="targetPoint" />
          </mxGeometry>
        </mxCell>
        <mxCell id="JMANzGFl1SLDtd_uZZzs-25" value="" style="endArrow=none;html=1;rounded=0;fontSize=17;entryX=0.209;entryY=0.003;entryDx=0;entryDy=0;entryPerimeter=0;" parent="1" edge="1">
          <mxGeometry relative="1" as="geometry">
            <mxPoint x="616" y="200" as="sourcePoint" />
            <mxPoint x="615.9000000000001" y="240.12" as="targetPoint" />
          </mxGeometry>
        </mxCell>
        <mxCell id="JMANzGFl1SLDtd_uZZzs-26" value="" style="endArrow=none;html=1;rounded=0;fontSize=17;entryX=0.209;entryY=0.003;entryDx=0;entryDy=0;entryPerimeter=0;" parent="1" edge="1">
          <mxGeometry relative="1" as="geometry">
            <mxPoint x="632" y="215" as="sourcePoint" />
            <mxPoint x="631.9000000000001" y="240.12" as="targetPoint" />
          </mxGeometry>
        </mxCell>
        <mxCell id="JMANzGFl1SLDtd_uZZzs-27" value="" style="endArrow=none;html=1;rounded=0;fontSize=17;entryX=0.209;entryY=0.003;entryDx=0;entryDy=0;entryPerimeter=0;" parent="1" edge="1">
          <mxGeometry relative="1" as="geometry">
            <mxPoint x="649" y="225" as="sourcePoint" />
            <mxPoint x="648.9000000000001" y="239.12" as="targetPoint" />
          </mxGeometry>
        </mxCell>
        <mxCell id="JMANzGFl1SLDtd_uZZzs-14" value="" style="ellipse;whiteSpace=wrap;html=1;fontSize=17;fillColor=#0050ef;fontColor=#ffffff;strokeColor=#001DBC;" parent="1" vertex="1">
          <mxGeometry x="643" y="221" width="12" height="10" as="geometry" />
        </mxCell>
        <mxCell id="JMANzGFl1SLDtd_uZZzs-28" value="" style="ellipse;whiteSpace=wrap;html=1;fontSize=17;fillColor=#0050ef;fontColor=#ffffff;strokeColor=#001DBC;" parent="1" vertex="1">
          <mxGeometry x="194" y="320" width="12" height="10" as="geometry" />
        </mxCell>
        <mxCell id="JMANzGFl1SLDtd_uZZzs-30" value="" style="endArrow=none;html=1;rounded=0;fontSize=17;entryX=0.209;entryY=0.003;entryDx=0;entryDy=0;entryPerimeter=0;" parent="1" edge="1">
          <mxGeometry relative="1" as="geometry">
            <mxPoint x="200" y="280" as="sourcePoint" />
            <mxPoint x="199.9000000000001" y="320.12" as="targetPoint" />
          </mxGeometry>
        </mxCell>
        <mxCell id="JMANzGFl1SLDtd_uZZzs-31" value="Instrumentos" style="text;strokeColor=none;fillColor=none;spacingLeft=4;spacingRight=4;overflow=hidden;rotatable=0;points=[[0,0.5],[1,0.5]];portConstraint=eastwest;fontSize=12;" parent="1" vertex="1">
          <mxGeometry x="161" y="336" width="80" height="30" as="geometry" />
        </mxCell>
        <mxCell id="JMANzGFl1SLDtd_uZZzs-33" value="" style="endArrow=none;html=1;rounded=0;fontSize=17;entryX=0.209;entryY=0.003;entryDx=0;entryDy=0;entryPerimeter=0;" parent="1" edge="1">
          <mxGeometry relative="1" as="geometry">
            <mxPoint x="200" y="367" as="sourcePoint" />
            <mxPoint x="199.9000000000001" y="407.12" as="targetPoint" />
          </mxGeometry>
        </mxCell>
        <mxCell id="JMANzGFl1SLDtd_uZZzs-35" value="" style="ellipse;whiteSpace=wrap;html=1;fontSize=17;" parent="1" vertex="1">
          <mxGeometry x="194" y="407" width="12" height="10" as="geometry" />
        </mxCell>
        <mxCell id="JMANzGFl1SLDtd_uZZzs-36" value="*" style="text;strokeColor=none;fillColor=none;spacingLeft=4;spacingRight=4;overflow=hidden;rotatable=0;points=[[0,0.5],[1,0.5]];portConstraint=eastwest;fontSize=24;" parent="1" vertex="1">
          <mxGeometry x="199" y="387" width="80" height="30" as="geometry" />
        </mxCell>
        <mxCell id="JMANzGFl1SLDtd_uZZzs-37" value="nomes dos instrumentos" style="text;strokeColor=none;fillColor=none;spacingLeft=4;spacingRight=4;overflow=hidden;rotatable=0;points=[[0,0.5],[1,0.5]];portConstraint=eastwest;fontSize=12;" parent="1" vertex="1">
          <mxGeometry x="129" y="420" width="150" height="30" as="geometry" />
        </mxCell>
        <mxCell id="JMANzGFl1SLDtd_uZZzs-38" value="Músicas" style="whiteSpace=wrap;html=1;align=center;fontSize=16;" parent="1" vertex="1">
          <mxGeometry x="827" y="241" width="100" height="40" as="geometry" />
        </mxCell>
        <mxCell id="JMANzGFl1SLDtd_uZZzs-45" value="" style="ellipse;whiteSpace=wrap;html=1;fontSize=17;" parent="1" vertex="1">
          <mxGeometry x="893" y="191" width="12" height="10" as="geometry" />
        </mxCell>
        <mxCell id="JMANzGFl1SLDtd_uZZzs-46" value="" style="ellipse;whiteSpace=wrap;html=1;fontSize=17;fillColor=#0050ef;fontColor=#ffffff;strokeColor=#001DBC;" parent="1" vertex="1">
          <mxGeometry x="850" y="321" width="12" height="10" as="geometry" />
        </mxCell>
        <mxCell id="JMANzGFl1SLDtd_uZZzs-47" value="Título" style="text;strokeColor=none;fillColor=none;spacingLeft=4;spacingRight=4;overflow=hidden;rotatable=0;points=[[0,0.5],[1,0.5]];portConstraint=eastwest;fontSize=12;" parent="1" vertex="1">
          <mxGeometry x="865" y="311" width="40" height="30" as="geometry" />
        </mxCell>
        <mxCell id="JMANzGFl1SLDtd_uZZzs-48" value="Autor" style="text;strokeColor=none;fillColor=none;spacingLeft=4;spacingRight=4;overflow=hidden;rotatable=0;points=[[0,0.5],[1,0.5]];portConstraint=eastwest;fontSize=12;" parent="1" vertex="1">
          <mxGeometry x="853" y="180" width="40" height="30" as="geometry" />
        </mxCell>
        <mxCell id="JMANzGFl1SLDtd_uZZzs-49" value="" style="endArrow=none;html=1;rounded=0;fontSize=17;entryX=0.209;entryY=0.003;entryDx=0;entryDy=0;entryPerimeter=0;" parent="1" edge="1">
          <mxGeometry relative="1" as="geometry">
            <mxPoint x="899.1" y="201" as="sourcePoint" />
            <mxPoint x="899.0000000000001" y="241.12" as="targetPoint" />
          </mxGeometry>
        </mxCell>
        <mxCell id="JMANzGFl1SLDtd_uZZzs-51" value="" style="endArrow=none;html=1;rounded=0;fontSize=17;entryX=0.209;entryY=0.003;entryDx=0;entryDy=0;entryPerimeter=0;" parent="1" edge="1">
          <mxGeometry relative="1" as="geometry">
            <mxPoint x="856.0999999999999" y="281" as="sourcePoint" />
            <mxPoint x="856" y="321.12" as="targetPoint" />
          </mxGeometry>
        </mxCell>
        <mxCell id="JMANzGFl1SLDtd_uZZzs-52" value="" style="endArrow=none;html=1;rounded=0;fontSize=16;" parent="1" edge="1">
          <mxGeometry relative="1" as="geometry">
            <mxPoint x="680" y="261" as="sourcePoint" />
            <mxPoint x="827" y="260.5" as="targetPoint" />
          </mxGeometry>
        </mxCell>
        <mxCell id="JMANzGFl1SLDtd_uZZzs-44" value="Contem" style="shape=rhombus;perimeter=rhombusPerimeter;whiteSpace=wrap;html=1;align=center;fontSize=17;" parent="1" vertex="1">
          <mxGeometry x="730" y="231" width="61" height="60" as="geometry" />
        </mxCell>
      </root>
    </mxGraphModel>
  </diagram>
  <diagram id="pbOWM5ATZ2rcRebrNF3P" name="Página-2">
    <mxGraphModel dx="2062" dy="684" grid="1" gridSize="10" guides="1" tooltips="1" connect="1" arrows="1" fold="1" page="1" pageScale="1" pageWidth="827" pageHeight="1169" math="0" shadow="0">
      <root>
        <mxCell id="0" />
        <mxCell id="1" parent="0" />
        <mxCell id="igZnlNaVQl2gQoKNDZCw-9" value="" style="whiteSpace=wrap;html=1;align=center;fillColor=none;" vertex="1" parent="1">
          <mxGeometry x="370" y="170" width="80" height="90" as="geometry" />
        </mxCell>
        <mxCell id="igZnlNaVQl2gQoKNDZCw-4" value="" style="endArrow=none;html=1;rounded=0;" edge="1" parent="1">
          <mxGeometry relative="1" as="geometry">
            <mxPoint x="254" y="219.5" as="sourcePoint" />
            <mxPoint x="414" y="219.5" as="targetPoint" />
          </mxGeometry>
        </mxCell>
        <mxCell id="igZnlNaVQl2gQoKNDZCw-21" value="1,N" style="edgeLabel;html=1;align=center;verticalAlign=middle;resizable=0;points=[];" vertex="1" connectable="0" parent="igZnlNaVQl2gQoKNDZCw-4">
          <mxGeometry x="-0.24" y="-3" relative="1" as="geometry">
            <mxPoint y="1" as="offset" />
          </mxGeometry>
        </mxCell>
        <mxCell id="igZnlNaVQl2gQoKNDZCw-5" value="" style="endArrow=none;html=1;rounded=0;" edge="1" parent="1">
          <mxGeometry relative="1" as="geometry">
            <mxPoint x="429" y="219.5" as="sourcePoint" />
            <mxPoint x="589" y="219.5" as="targetPoint" />
          </mxGeometry>
        </mxCell>
        <mxCell id="igZnlNaVQl2gQoKNDZCw-18" value="N" style="edgeLabel;html=1;align=center;verticalAlign=middle;resizable=0;points=[];" vertex="1" connectable="0" parent="igZnlNaVQl2gQoKNDZCw-5">
          <mxGeometry x="-0.3025" y="-1" relative="1" as="geometry">
            <mxPoint y="1" as="offset" />
          </mxGeometry>
        </mxCell>
        <mxCell id="igZnlNaVQl2gQoKNDZCw-3" value="Candidatos" style="whiteSpace=wrap;html=1;align=center;" vertex="1" parent="1">
          <mxGeometry x="540" y="200" width="100" height="40" as="geometry" />
        </mxCell>
        <mxCell id="igZnlNaVQl2gQoKNDZCw-1" value="Empresa" style="whiteSpace=wrap;html=1;align=center;" vertex="1" parent="1">
          <mxGeometry x="170" y="200" width="100" height="40" as="geometry" />
        </mxCell>
        <mxCell id="igZnlNaVQl2gQoKNDZCw-6" value="" style="endArrow=none;html=1;rounded=0;" edge="1" parent="1">
          <mxGeometry relative="1" as="geometry">
            <mxPoint x="409.5" y="240" as="sourcePoint" />
            <mxPoint x="409.5" y="340" as="targetPoint" />
          </mxGeometry>
        </mxCell>
        <mxCell id="igZnlNaVQl2gQoKNDZCw-2" value="entrevista" style="shape=rhombus;perimeter=rhombusPerimeter;whiteSpace=wrap;html=1;align=center;" vertex="1" parent="1">
          <mxGeometry x="380" y="190" width="60" height="60" as="geometry" />
        </mxCell>
        <mxCell id="igZnlNaVQl2gQoKNDZCw-12" value="" style="endArrow=none;html=1;rounded=0;" edge="1" parent="1">
          <mxGeometry relative="1" as="geometry">
            <mxPoint x="410.5" y="370" as="sourcePoint" />
            <mxPoint x="410.5" y="470" as="targetPoint" />
          </mxGeometry>
        </mxCell>
        <mxCell id="igZnlNaVQl2gQoKNDZCw-22" value="1,N" style="edgeLabel;html=1;align=center;verticalAlign=middle;resizable=0;points=[];" vertex="1" connectable="0" parent="igZnlNaVQl2gQoKNDZCw-12">
          <mxGeometry x="0.32" relative="1" as="geometry">
            <mxPoint as="offset" />
          </mxGeometry>
        </mxCell>
        <mxCell id="igZnlNaVQl2gQoKNDZCw-8" value="gera" style="shape=rhombus;perimeter=rhombusPerimeter;whiteSpace=wrap;html=1;align=center;" vertex="1" parent="1">
          <mxGeometry x="380" y="320" width="60" height="60" as="geometry" />
        </mxCell>
        <mxCell id="igZnlNaVQl2gQoKNDZCw-13" value="" style="endArrow=none;html=1;rounded=0;" edge="1" parent="1">
          <mxGeometry relative="1" as="geometry">
            <mxPoint x="460" y="489.5" as="sourcePoint" />
            <mxPoint x="590" y="490" as="targetPoint" />
          </mxGeometry>
        </mxCell>
        <mxCell id="igZnlNaVQl2gQoKNDZCw-14" value="" style="endArrow=none;html=1;rounded=0;startArrow=none;" edge="1" parent="1" source="igZnlNaVQl2gQoKNDZCw-15">
          <mxGeometry relative="1" as="geometry">
            <mxPoint x="590" y="490" as="sourcePoint" />
            <mxPoint x="590" y="240" as="targetPoint" />
          </mxGeometry>
        </mxCell>
        <mxCell id="igZnlNaVQl2gQoKNDZCw-20" value="1" style="edgeLabel;html=1;align=center;verticalAlign=middle;resizable=0;points=[];" vertex="1" connectable="0" parent="igZnlNaVQl2gQoKNDZCw-14">
          <mxGeometry x="0.2154" relative="1" as="geometry">
            <mxPoint as="offset" />
          </mxGeometry>
        </mxCell>
        <mxCell id="igZnlNaVQl2gQoKNDZCw-11" value="Emprego" style="whiteSpace=wrap;html=1;align=center;" vertex="1" parent="1">
          <mxGeometry x="362" y="470" width="100" height="40" as="geometry" />
        </mxCell>
        <mxCell id="igZnlNaVQl2gQoKNDZCw-16" value="" style="endArrow=none;html=1;rounded=0;" edge="1" parent="1" target="igZnlNaVQl2gQoKNDZCw-15">
          <mxGeometry relative="1" as="geometry">
            <mxPoint x="590" y="490" as="sourcePoint" />
            <mxPoint x="590" y="240" as="targetPoint" />
          </mxGeometry>
        </mxCell>
        <mxCell id="igZnlNaVQl2gQoKNDZCw-15" value="preenche" style="shape=rhombus;perimeter=rhombusPerimeter;whiteSpace=wrap;html=1;align=center;" vertex="1" parent="1">
          <mxGeometry x="565" y="370" width="50" height="50" as="geometry" />
        </mxCell>
        <mxCell id="igZnlNaVQl2gQoKNDZCw-25" value="veículos" style="whiteSpace=wrap;html=1;align=center;" vertex="1" parent="1">
          <mxGeometry x="370" y="710" width="100" height="40" as="geometry" />
        </mxCell>
        <mxCell id="igZnlNaVQl2gQoKNDZCw-26" value="" style="verticalLabelPosition=bottom;verticalAlign=top;html=1;shape=mxgraph.basic.acute_triangle;dx=0.5;" vertex="1" parent="1">
          <mxGeometry x="395" y="840" width="50" height="30" as="geometry" />
        </mxCell>
        <mxCell id="igZnlNaVQl2gQoKNDZCw-27" value="aquáticos" style="whiteSpace=wrap;html=1;align=center;" vertex="1" parent="1">
          <mxGeometry x="190" y="900" width="100" height="40" as="geometry" />
        </mxCell>
        <mxCell id="igZnlNaVQl2gQoKNDZCw-28" value="terrestres" style="whiteSpace=wrap;html=1;align=center;" vertex="1" parent="1">
          <mxGeometry x="565" y="900" width="100" height="40" as="geometry" />
        </mxCell>
        <mxCell id="igZnlNaVQl2gQoKNDZCw-29" value="Attribute" style="ellipse;whiteSpace=wrap;html=1;align=center;fillColor=none;fontColor=none;noLabel=1;" vertex="1" parent="1">
          <mxGeometry x="110" y="910" width="20" height="20" as="geometry" />
        </mxCell>
        <mxCell id="igZnlNaVQl2gQoKNDZCw-34" value="Attribute" style="ellipse;whiteSpace=wrap;html=1;align=center;fontColor=none;noLabel=1;" vertex="1" parent="1">
          <mxGeometry x="724" y="910" width="20" height="20" as="geometry" />
        </mxCell>
        <mxCell id="igZnlNaVQl2gQoKNDZCw-38" value="" style="line;strokeWidth=1;rotatable=0;dashed=0;labelPosition=right;align=left;verticalAlign=middle;spacingTop=0;spacingLeft=6;points=[];portConstraint=eastwest;" vertex="1" parent="1">
          <mxGeometry x="130" y="915" width="60" height="10" as="geometry" />
        </mxCell>
        <mxCell id="igZnlNaVQl2gQoKNDZCw-39" value="" style="line;strokeWidth=1;rotatable=0;dashed=0;labelPosition=right;align=left;verticalAlign=middle;spacingTop=0;spacingLeft=6;points=[];portConstraint=eastwest;" vertex="1" parent="1">
          <mxGeometry x="665" y="915" width="60" height="10" as="geometry" />
        </mxCell>
        <mxCell id="igZnlNaVQl2gQoKNDZCw-44" value="peso" style="text;strokeColor=none;fillColor=none;spacingLeft=4;spacingRight=4;overflow=hidden;rotatable=0;points=[[0,0.5],[1,0.5]];portConstraint=eastwest;fontSize=12;whiteSpace=wrap;html=1;" vertex="1" parent="1">
          <mxGeometry x="100" y="870" width="40" height="30" as="geometry" />
        </mxCell>
        <mxCell id="igZnlNaVQl2gQoKNDZCw-45" value="qunt. de pneus" style="text;strokeColor=none;fillColor=none;spacingLeft=4;spacingRight=4;overflow=hidden;rotatable=0;points=[[0,0.5],[1,0.5]];portConstraint=eastwest;fontSize=12;whiteSpace=wrap;html=1;" vertex="1" parent="1">
          <mxGeometry x="714" y="860" width="76" height="30" as="geometry" />
        </mxCell>
        <mxCell id="igZnlNaVQl2gQoKNDZCw-46" value="anfíbios" style="whiteSpace=wrap;html=1;align=center;" vertex="1" parent="1">
          <mxGeometry x="370" y="1240" width="100" height="40" as="geometry" />
        </mxCell>
        <mxCell id="igZnlNaVQl2gQoKNDZCw-47" value="" style="endArrow=none;html=1;rounded=0;entryX=0;entryY=1;entryDx=0;entryDy=0;entryPerimeter=0;" edge="1" parent="1" target="igZnlNaVQl2gQoKNDZCw-26">
          <mxGeometry relative="1" as="geometry">
            <mxPoint x="290" y="924" as="sourcePoint" />
            <mxPoint x="450" y="924" as="targetPoint" />
          </mxGeometry>
        </mxCell>
        <mxCell id="igZnlNaVQl2gQoKNDZCw-48" value="" style="endArrow=none;html=1;rounded=0;exitX=1;exitY=1;exitDx=0;exitDy=0;exitPerimeter=0;" edge="1" parent="1" source="igZnlNaVQl2gQoKNDZCw-26">
          <mxGeometry relative="1" as="geometry">
            <mxPoint x="405" y="924" as="sourcePoint" />
            <mxPoint x="565" y="924" as="targetPoint" />
          </mxGeometry>
        </mxCell>
        <mxCell id="igZnlNaVQl2gQoKNDZCw-49" value="" style="endArrow=none;html=1;rounded=0;exitX=0.5;exitY=0;exitDx=0;exitDy=0;entryX=0.5;entryY=1;entryDx=0;entryDy=0;entryPerimeter=0;" edge="1" parent="1" source="igZnlNaVQl2gQoKNDZCw-46" target="igZnlNaVQl2gQoKNDZCw-51">
          <mxGeometry relative="1" as="geometry">
            <mxPoint x="414" y="970" as="sourcePoint" />
            <mxPoint x="420" y="1130" as="targetPoint" />
          </mxGeometry>
        </mxCell>
        <mxCell id="igZnlNaVQl2gQoKNDZCw-50" value="" style="endArrow=none;html=1;rounded=0;exitX=0.5;exitY=0;exitDx=0;exitDy=0;" edge="1" parent="1">
          <mxGeometry relative="1" as="geometry">
            <mxPoint x="419.5" y="840" as="sourcePoint" />
            <mxPoint x="420" y="750" as="targetPoint" />
          </mxGeometry>
        </mxCell>
        <mxCell id="igZnlNaVQl2gQoKNDZCw-51" value="" style="verticalLabelPosition=bottom;verticalAlign=top;html=1;shape=mxgraph.basic.acute_triangle;dx=0.5;" vertex="1" parent="1">
          <mxGeometry x="395" y="1040" width="50" height="30" as="geometry" />
        </mxCell>
        <mxCell id="igZnlNaVQl2gQoKNDZCw-52" value="" style="endArrow=none;html=1;rounded=0;exitX=0.84;exitY=1.045;exitDx=0;exitDy=0;exitPerimeter=0;entryX=0;entryY=0;entryDx=12.5;entryDy=15;entryPerimeter=0;" edge="1" parent="1" source="igZnlNaVQl2gQoKNDZCw-27" target="igZnlNaVQl2gQoKNDZCw-51">
          <mxGeometry relative="1" as="geometry">
            <mxPoint x="250" y="1054.5" as="sourcePoint" />
            <mxPoint x="410" y="1054.5" as="targetPoint" />
          </mxGeometry>
        </mxCell>
        <mxCell id="igZnlNaVQl2gQoKNDZCw-53" value="" style="endArrow=none;html=1;rounded=0;exitX=0;exitY=0;exitDx=37.5;exitDy=15;exitPerimeter=0;entryX=0.178;entryY=1.025;entryDx=0;entryDy=0;entryPerimeter=0;" edge="1" parent="1" source="igZnlNaVQl2gQoKNDZCw-51" target="igZnlNaVQl2gQoKNDZCw-28">
          <mxGeometry relative="1" as="geometry">
            <mxPoint x="440" y="960" as="sourcePoint" />
            <mxPoint x="574" y="1073" as="targetPoint" />
          </mxGeometry>
        </mxCell>
        <mxCell id="igZnlNaVQl2gQoKNDZCw-55" value="" style="endArrow=none;html=1;rounded=0;entryX=0.5;entryY=0;entryDx=0;entryDy=0;exitX=0.5;exitY=1;exitDx=0;exitDy=0;" edge="1" parent="1" source="igZnlNaVQl2gQoKNDZCw-27">
          <mxGeometry relative="1" as="geometry">
            <mxPoint x="140" y="970" as="sourcePoint" />
            <mxPoint x="240" y="990" as="targetPoint" />
          </mxGeometry>
        </mxCell>
        <mxCell id="igZnlNaVQl2gQoKNDZCw-58" value="" style="endArrow=none;html=1;rounded=0;entryX=0.5;entryY=0;entryDx=0;entryDy=0;exitX=0.5;exitY=1;exitDx=0;exitDy=0;" edge="1" parent="1">
          <mxGeometry relative="1" as="geometry">
            <mxPoint x="629.5" y="940" as="sourcePoint" />
            <mxPoint x="629.5" y="990" as="targetPoint" />
          </mxGeometry>
        </mxCell>
        <mxCell id="igZnlNaVQl2gQoKNDZCw-60" value="Barco" style="whiteSpace=wrap;html=1;align=center;" vertex="1" parent="1">
          <mxGeometry x="190" y="990" width="100" height="40" as="geometry" />
        </mxCell>
        <mxCell id="igZnlNaVQl2gQoKNDZCw-61" value="Automóvel" style="whiteSpace=wrap;html=1;align=center;" vertex="1" parent="1">
          <mxGeometry x="580" y="988" width="100" height="40" as="geometry" />
        </mxCell>
        <mxCell id="igZnlNaVQl2gQoKNDZCw-62" value="Attribute" style="ellipse;whiteSpace=wrap;html=1;align=center;fontColor=none;noLabel=1;" vertex="1" parent="1">
          <mxGeometry x="619" y="1078" width="20" height="20" as="geometry" />
        </mxCell>
        <mxCell id="igZnlNaVQl2gQoKNDZCw-63" value="" style="endArrow=none;html=1;rounded=0;entryX=0.5;entryY=0;entryDx=0;entryDy=0;exitX=0.5;exitY=1;exitDx=0;exitDy=0;" edge="1" parent="1">
          <mxGeometry relative="1" as="geometry">
            <mxPoint x="629.5" y="1028" as="sourcePoint" />
            <mxPoint x="629.5" y="1078" as="targetPoint" />
          </mxGeometry>
        </mxCell>
        <mxCell id="igZnlNaVQl2gQoKNDZCw-64" value="qunt. de portas" style="text;strokeColor=none;fillColor=none;spacingLeft=4;spacingRight=4;overflow=hidden;rotatable=0;points=[[0,0.5],[1,0.5]];portConstraint=eastwest;fontSize=12;whiteSpace=wrap;html=1;" vertex="1" parent="1">
          <mxGeometry x="648" y="1068" width="76" height="30" as="geometry" />
        </mxCell>
        <mxCell id="igZnlNaVQl2gQoKNDZCw-65" value="" style="endArrow=none;html=1;rounded=0;entryX=0.5;entryY=0;entryDx=0;entryDy=0;exitX=0.5;exitY=1;exitDx=0;exitDy=0;" edge="1" parent="1">
          <mxGeometry relative="1" as="geometry">
            <mxPoint x="419.5" y="1280" as="sourcePoint" />
            <mxPoint x="419.5" y="1330" as="targetPoint" />
          </mxGeometry>
        </mxCell>
        <mxCell id="igZnlNaVQl2gQoKNDZCw-66" value="Attribute" style="ellipse;whiteSpace=wrap;html=1;align=center;fontColor=none;noLabel=1;" vertex="1" parent="1">
          <mxGeometry x="410" y="1329" width="20" height="20" as="geometry" />
        </mxCell>
        <mxCell id="igZnlNaVQl2gQoKNDZCw-67" value="Dispositivo de mutação" style="text;strokeColor=none;fillColor=none;spacingLeft=4;spacingRight=4;overflow=hidden;rotatable=0;points=[[0,0.5],[1,0.5]];portConstraint=eastwest;fontSize=12;whiteSpace=wrap;html=1;" vertex="1" parent="1">
          <mxGeometry x="430" y="1320" width="76" height="30" as="geometry" />
        </mxCell>
        <mxCell id="igZnlNaVQl2gQoKNDZCw-68" value="Attribute" style="ellipse;whiteSpace=wrap;html=1;align=center;fillColor=none;fontColor=none;noLabel=1;" vertex="1" parent="1">
          <mxGeometry x="230" y="1077" width="20" height="20" as="geometry" />
        </mxCell>
        <mxCell id="igZnlNaVQl2gQoKNDZCw-69" value="" style="endArrow=none;html=1;rounded=0;entryX=0.5;entryY=0;entryDx=0;entryDy=0;exitX=0.5;exitY=1;exitDx=0;exitDy=0;" edge="1" parent="1">
          <mxGeometry relative="1" as="geometry">
            <mxPoint x="239.5" y="1028" as="sourcePoint" />
            <mxPoint x="239.5" y="1078" as="targetPoint" />
          </mxGeometry>
        </mxCell>
        <mxCell id="igZnlNaVQl2gQoKNDZCw-70" value="Tipo de hélices" style="text;strokeColor=none;fillColor=none;spacingLeft=4;spacingRight=4;overflow=hidden;rotatable=0;points=[[0,0.5],[1,0.5]];portConstraint=eastwest;fontSize=12;whiteSpace=wrap;html=1;" vertex="1" parent="1">
          <mxGeometry x="180" y="1072" width="60" height="30" as="geometry" />
        </mxCell>
        <mxCell id="igZnlNaVQl2gQoKNDZCw-71" value="Attribute" style="ellipse;whiteSpace=wrap;html=1;align=center;fillColor=none;fontColor=none;noLabel=1;" vertex="1" parent="1">
          <mxGeometry x="385" y="641" width="20" height="20" as="geometry" />
        </mxCell>
        <mxCell id="igZnlNaVQl2gQoKNDZCw-72" value="Attribute" style="ellipse;whiteSpace=wrap;html=1;align=center;fillColor=none;fontColor=none;noLabel=1;" vertex="1" parent="1">
          <mxGeometry x="430" y="642" width="20" height="20" as="geometry" />
        </mxCell>
        <mxCell id="igZnlNaVQl2gQoKNDZCw-75" value="" style="endArrow=none;html=1;rounded=0;entryX=0.5;entryY=0;entryDx=0;entryDy=0;exitX=0.5;exitY=1;exitDx=0;exitDy=0;" edge="1" parent="1">
          <mxGeometry relative="1" as="geometry">
            <mxPoint x="396" y="660" as="sourcePoint" />
            <mxPoint x="396" y="710" as="targetPoint" />
          </mxGeometry>
        </mxCell>
        <mxCell id="igZnlNaVQl2gQoKNDZCw-76" value="" style="endArrow=none;html=1;rounded=0;entryX=0.5;entryY=0;entryDx=0;entryDy=0;exitX=0.5;exitY=1;exitDx=0;exitDy=0;" edge="1" parent="1">
          <mxGeometry relative="1" as="geometry">
            <mxPoint x="440" y="661" as="sourcePoint" />
            <mxPoint x="440" y="711" as="targetPoint" />
          </mxGeometry>
        </mxCell>
        <mxCell id="igZnlNaVQl2gQoKNDZCw-77" value="Descrição" style="text;strokeColor=none;fillColor=none;spacingLeft=4;spacingRight=4;overflow=hidden;rotatable=0;points=[[0,0.5],[1,0.5]];portConstraint=eastwest;fontSize=12;whiteSpace=wrap;html=1;" vertex="1" parent="1">
          <mxGeometry x="315" y="636" width="70" height="30" as="geometry" />
        </mxCell>
        <mxCell id="igZnlNaVQl2gQoKNDZCw-78" value="Valor" style="text;strokeColor=none;fillColor=none;spacingLeft=4;spacingRight=4;overflow=hidden;rotatable=0;points=[[0,0.5],[1,0.5]];portConstraint=eastwest;fontSize=12;whiteSpace=wrap;html=1;" vertex="1" parent="1">
          <mxGeometry x="462" y="636" width="70" height="30" as="geometry" />
        </mxCell>
        <mxCell id="igZnlNaVQl2gQoKNDZCw-79" value="Empregado" style="whiteSpace=wrap;html=1;align=center;" vertex="1" parent="1">
          <mxGeometry x="345" y="1700" width="100" height="40" as="geometry" />
        </mxCell>
        <mxCell id="igZnlNaVQl2gQoKNDZCw-80" value="" style="verticalLabelPosition=bottom;verticalAlign=top;html=1;shape=mxgraph.basic.acute_triangle;dx=0.5;" vertex="1" parent="1">
          <mxGeometry x="375" y="1870" width="50" height="30" as="geometry" />
        </mxCell>
        <mxCell id="igZnlNaVQl2gQoKNDZCw-81" value="Esportista" style="whiteSpace=wrap;html=1;align=center;" vertex="1" parent="1">
          <mxGeometry x="170" y="1970" width="100" height="40" as="geometry" />
        </mxCell>
        <mxCell id="igZnlNaVQl2gQoKNDZCw-82" value="Engenheiro" style="whiteSpace=wrap;html=1;align=center;" vertex="1" parent="1">
          <mxGeometry x="519" y="1970" width="100" height="40" as="geometry" />
        </mxCell>
        <mxCell id="igZnlNaVQl2gQoKNDZCw-83" value="Projetos" style="whiteSpace=wrap;html=1;align=center;" vertex="1" parent="1">
          <mxGeometry x="690" y="1700" width="100" height="40" as="geometry" />
        </mxCell>
        <mxCell id="igZnlNaVQl2gQoKNDZCw-84" value="Trabalha" style="shape=rhombus;perimeter=rhombusPerimeter;whiteSpace=wrap;html=1;align=center;" vertex="1" parent="1">
          <mxGeometry x="550" y="1695" width="50" height="50" as="geometry" />
        </mxCell>
        <mxCell id="igZnlNaVQl2gQoKNDZCw-87" value="" style="endArrow=none;html=1;rounded=0;exitX=0;exitY=0;exitDx=25;exitDy=0;exitPerimeter=0;entryX=0.5;entryY=1;entryDx=0;entryDy=0;" edge="1" parent="1" source="igZnlNaVQl2gQoKNDZCw-80" target="igZnlNaVQl2gQoKNDZCw-79">
          <mxGeometry relative="1" as="geometry">
            <mxPoint x="380" y="1860" as="sourcePoint" />
            <mxPoint x="540" y="1860" as="targetPoint" />
          </mxGeometry>
        </mxCell>
        <mxCell id="igZnlNaVQl2gQoKNDZCw-88" value="" style="endArrow=none;html=1;rounded=0;entryX=0;entryY=1;entryDx=0;entryDy=0;entryPerimeter=0;" edge="1" parent="1" target="igZnlNaVQl2gQoKNDZCw-80">
          <mxGeometry relative="1" as="geometry">
            <mxPoint x="270" y="1980" as="sourcePoint" />
            <mxPoint x="430" y="1980" as="targetPoint" />
          </mxGeometry>
        </mxCell>
        <mxCell id="igZnlNaVQl2gQoKNDZCw-89" value="" style="endArrow=none;html=1;rounded=0;exitX=1;exitY=1;exitDx=0;exitDy=0;exitPerimeter=0;" edge="1" parent="1" source="igZnlNaVQl2gQoKNDZCw-80">
          <mxGeometry relative="1" as="geometry">
            <mxPoint x="359" y="1980" as="sourcePoint" />
            <mxPoint x="520" y="1980" as="targetPoint" />
          </mxGeometry>
        </mxCell>
        <mxCell id="igZnlNaVQl2gQoKNDZCw-90" value="" style="endArrow=none;html=1;rounded=0;entryX=0.5;entryY=0;entryDx=0;entryDy=0;" edge="1" parent="1" source="igZnlNaVQl2gQoKNDZCw-81">
          <mxGeometry relative="1" as="geometry">
            <mxPoint x="170" y="2070" as="sourcePoint" />
            <mxPoint x="220" y="2100" as="targetPoint" />
          </mxGeometry>
        </mxCell>
        <mxCell id="igZnlNaVQl2gQoKNDZCw-107" value="0,1" style="edgeLabel;html=1;align=center;verticalAlign=middle;resizable=0;points=[];" vertex="1" connectable="0" parent="igZnlNaVQl2gQoKNDZCw-90">
          <mxGeometry x="-0.2356" y="2" relative="1" as="geometry">
            <mxPoint as="offset" />
          </mxGeometry>
        </mxCell>
        <mxCell id="igZnlNaVQl2gQoKNDZCw-91" value="" style="endArrow=none;html=1;rounded=0;entryX=0.5;entryY=0;entryDx=0;entryDy=0;" edge="1" parent="1">
          <mxGeometry relative="1" as="geometry">
            <mxPoint x="568.5" y="2010" as="sourcePoint" />
            <mxPoint x="568.5" y="2100" as="targetPoint" />
          </mxGeometry>
        </mxCell>
        <mxCell id="igZnlNaVQl2gQoKNDZCw-108" value="0,1" style="edgeLabel;html=1;align=center;verticalAlign=middle;resizable=0;points=[];" vertex="1" connectable="0" parent="igZnlNaVQl2gQoKNDZCw-91">
          <mxGeometry x="-0.2356" y="-1" relative="1" as="geometry">
            <mxPoint as="offset" />
          </mxGeometry>
        </mxCell>
        <mxCell id="igZnlNaVQl2gQoKNDZCw-92" value="" style="endArrow=none;html=1;rounded=0;entryX=0;entryY=0.5;entryDx=0;entryDy=0;" edge="1" parent="1" target="igZnlNaVQl2gQoKNDZCw-84">
          <mxGeometry relative="1" as="geometry">
            <mxPoint x="445" y="1719.5" as="sourcePoint" />
            <mxPoint x="605" y="1719.5" as="targetPoint" />
          </mxGeometry>
        </mxCell>
        <mxCell id="igZnlNaVQl2gQoKNDZCw-109" value="1,N" style="edgeLabel;html=1;align=center;verticalAlign=middle;resizable=0;points=[];" vertex="1" connectable="0" parent="igZnlNaVQl2gQoKNDZCw-92">
          <mxGeometry x="0.1545" y="-3" relative="1" as="geometry">
            <mxPoint as="offset" />
          </mxGeometry>
        </mxCell>
        <mxCell id="igZnlNaVQl2gQoKNDZCw-94" value="" style="endArrow=none;html=1;rounded=0;entryX=0;entryY=0.5;entryDx=0;entryDy=0;exitX=1;exitY=0.5;exitDx=0;exitDy=0;" edge="1" parent="1" source="igZnlNaVQl2gQoKNDZCw-84">
          <mxGeometry relative="1" as="geometry">
            <mxPoint x="585" y="1719.5" as="sourcePoint" />
            <mxPoint x="690" y="1720" as="targetPoint" />
          </mxGeometry>
        </mxCell>
        <mxCell id="igZnlNaVQl2gQoKNDZCw-110" value="1,N" style="edgeLabel;html=1;align=center;verticalAlign=middle;resizable=0;points=[];" vertex="1" connectable="0" parent="igZnlNaVQl2gQoKNDZCw-94">
          <mxGeometry x="-0.2311" y="-1" relative="1" as="geometry">
            <mxPoint as="offset" />
          </mxGeometry>
        </mxCell>
        <mxCell id="igZnlNaVQl2gQoKNDZCw-97" value="filiado" style="shape=rhombus;perimeter=rhombusPerimeter;whiteSpace=wrap;html=1;align=center;" vertex="1" parent="1">
          <mxGeometry x="40" y="1970" width="50" height="50" as="geometry" />
        </mxCell>
        <mxCell id="igZnlNaVQl2gQoKNDZCw-99" value="" style="endArrow=none;html=1;rounded=0;" edge="1" parent="1" source="igZnlNaVQl2gQoKNDZCw-97">
          <mxGeometry relative="1" as="geometry">
            <mxPoint x="10" y="1989.5" as="sourcePoint" />
            <mxPoint x="170" y="1989.5" as="targetPoint" />
          </mxGeometry>
        </mxCell>
        <mxCell id="igZnlNaVQl2gQoKNDZCw-105" value="N,N" style="edgeLabel;html=1;align=center;verticalAlign=middle;resizable=0;points=[];" vertex="1" connectable="0" parent="igZnlNaVQl2gQoKNDZCw-99">
          <mxGeometry x="0.4231" y="-1" relative="1" as="geometry">
            <mxPoint as="offset" />
          </mxGeometry>
        </mxCell>
        <mxCell id="igZnlNaVQl2gQoKNDZCw-100" value="" style="endArrow=none;html=1;rounded=0;" edge="1" parent="1">
          <mxGeometry relative="1" as="geometry">
            <mxPoint x="-120" y="1994.5" as="sourcePoint" />
            <mxPoint x="40" y="1994.5" as="targetPoint" />
          </mxGeometry>
        </mxCell>
        <mxCell id="igZnlNaVQl2gQoKNDZCw-106" value="N,N" style="edgeLabel;html=1;align=center;verticalAlign=middle;resizable=0;points=[];" vertex="1" connectable="0" parent="igZnlNaVQl2gQoKNDZCw-100">
          <mxGeometry x="0.6575" y="-1" relative="1" as="geometry">
            <mxPoint as="offset" />
          </mxGeometry>
        </mxCell>
        <mxCell id="igZnlNaVQl2gQoKNDZCw-98" value="Equipes" style="whiteSpace=wrap;html=1;align=center;" vertex="1" parent="1">
          <mxGeometry x="-120" y="1975" width="100" height="40" as="geometry" />
        </mxCell>
        <mxCell id="igZnlNaVQl2gQoKNDZCw-111" value="Attribute" style="ellipse;whiteSpace=wrap;html=1;align=center;fontColor=none;noLabel=1;" vertex="1" parent="1">
          <mxGeometry x="210" y="2100" width="20" height="20" as="geometry" />
        </mxCell>
        <mxCell id="igZnlNaVQl2gQoKNDZCw-112" value="modalidade" style="text;strokeColor=none;fillColor=none;spacingLeft=4;spacingRight=4;overflow=hidden;rotatable=0;points=[[0,0.5],[1,0.5]];portConstraint=eastwest;fontSize=12;whiteSpace=wrap;html=1;" vertex="1" parent="1">
          <mxGeometry x="239" y="2100" width="76" height="30" as="geometry" />
        </mxCell>
        <mxCell id="igZnlNaVQl2gQoKNDZCw-113" value="Attribute" style="ellipse;whiteSpace=wrap;html=1;align=center;fontColor=none;noLabel=1;" vertex="1" parent="1">
          <mxGeometry x="557" y="2100" width="20" height="20" as="geometry" />
        </mxCell>
        <mxCell id="igZnlNaVQl2gQoKNDZCw-114" value="especialidade" style="text;strokeColor=none;fillColor=none;spacingLeft=4;spacingRight=4;overflow=hidden;rotatable=0;points=[[0,0.5],[1,0.5]];portConstraint=eastwest;fontSize=12;whiteSpace=wrap;html=1;" vertex="1" parent="1">
          <mxGeometry x="580" y="2100" width="76" height="30" as="geometry" />
        </mxCell>
      </root>
    </mxGraphModel>
  </diagram>
</mxfile>
